ISO-10303-21;
HEADER;
FILE_DESCRIPTION (( 'STEP AP214' ),
    '1' );
FILE_NAME ('spacer GelSlim to WSG.STEP',
    '2024-08-21T10:12:53',
    ( '' ),
    ( '' ),
    'SwSTEP 2.0',
    'SolidWorks 2024',
    '' );
FILE_SCHEMA (( 'AUTOMOTIVE_DESIGN' ));
ENDSEC;

DATA;
#1 = ORIENTED_EDGE ( 'NONE', *, *, #161, .F. ) ;
#2 = DIRECTION ( 'NONE',  ( 1.000000000000000000, 0.000000000000000000, -0.000000000000000000 ) ) ;
#3 = CARTESIAN_POINT ( 'NONE',  ( 0.000000000000000000, 0.000000000000000000, 0.2999999999999999334 ) ) ;
#4 = EDGE_CURVE ( 'NONE', #219, #294, #342, .T. ) ;
#5 = DIRECTION ( 'NONE',  ( 0.000000000000000000, 0.000000000000000000, 1.000000000000000000 ) ) ;
#6 = EDGE_CURVE ( 'NONE', #56, #357, #16, .T. ) ;
#7 = VECTOR ( 'NONE', #213, 1000.000000000000000 ) ;
#8 = AXIS2_PLACEMENT_3D ( 'NONE', #239, #163, #217 ) ;
#9 = PRODUCT_DEFINITION_FORMATION_WITH_SPECIFIED_SOURCE ( 'ANY', '', #372, .NOT_KNOWN. ) ;
#10 = DIRECTION ( 'NONE',  ( -0.000000000000000000, -0.000000000000000000, -1.000000000000000000 ) ) ;
#11 = AXIS2_PLACEMENT_3D ( 'NONE', #64, #229, #112 ) ;
#12 = APPLICATION_CONTEXT ( 'automotive_design' ) ;
#13 = CYLINDRICAL_SURFACE ( 'NONE', #27, 3.499999999999999556 ) ;
#14 = TOROIDAL_SURFACE ( 'NONE', #83, 4.650000000000000355, 0.2999999999999999889 ) ;
#15 = FACE_OUTER_BOUND ( 'NONE', #200, .T. ) ;
#16 = CIRCLE ( 'NONE', #264, 0.5000000000000000000 ) ;
#17 = UNCERTAINTY_MEASURE_WITH_UNIT (LENGTH_MEASURE( 1.000000000000000082E-05 ), #252, 'distance_accuracy_value', 'NONE');
#18 = EDGE_LOOP ( 'NONE', ( #136, #225, #222, #138 ) ) ;
#19 = DIRECTION ( 'NONE',  ( -0.000000000000000000, -0.000000000000000000, 1.000000000000000000 ) ) ;
#20 = ORIENTED_EDGE ( 'NONE', *, *, #370, .T. ) ;
#21 = ADVANCED_FACE ( 'NONE', ( #115, #119 ), #144, .T. ) ;
#22 = AXIS2_PLACEMENT_3D ( 'NONE', #110, #318, #142 ) ;
#23 = VERTEX_POINT ( 'NONE', #33 ) ;
#24 = EDGE_CURVE ( 'NONE', #23, #277, #151, .T. ) ;
#25 = ORIENTED_EDGE ( 'NONE', *, *, #211, .T. ) ;
#26 = ORIENTED_EDGE ( 'NONE', *, *, #100, .F. ) ;
#27 = AXIS2_PLACEMENT_3D ( 'NONE', #269, #304, #272 ) ;
#28 = ORIENTED_EDGE ( 'NONE', *, *, #100, .T. ) ;
#29 = DIRECTION ( 'NONE',  ( -0.000000000000000000, -0.000000000000000000, -1.000000000000000000 ) ) ;
#30 = CARTESIAN_POINT ( 'NONE',  ( 0.000000000000000000, 0.000000000000000000, 0.000000000000000000 ) ) ;
#31 = CYLINDRICAL_SURFACE ( 'NONE', #220, 2.049999999999999822 ) ;
#32 = CARTESIAN_POINT ( 'NONE',  ( 0.000000000000000000, 0.000000000000000000, 0.2999999999999999334 ) ) ;
#33 = CARTESIAN_POINT ( 'NONE',  ( 4.650000000000000355, 0.000000000000000000, 0.000000000000000000 ) ) ;
#34 = CARTESIAN_POINT ( 'NONE',  ( 0.000000000000000000, 0.000000000000000000, 0.000000000000000000 ) ) ;
#35 = DIRECTION ( 'NONE',  ( 1.000000000000000000, 0.000000000000000000, 0.000000000000000000 ) ) ;
#36 = DIRECTION ( 'NONE',  ( 1.000000000000000000, 0.000000000000000000, 0.000000000000000000 ) ) ;
#37 = DIRECTION ( 'NONE',  ( 0.000000000000000000, 0.000000000000000000, 1.000000000000000000 ) ) ;
#38 = AXIS2_PLACEMENT_3D ( 'NONE', #30, #374, #114 ) ;
#39 = PRODUCT_RELATED_PRODUCT_CATEGORY ( 'part', '', ( #372 ) ) ;
#40 = CYLINDRICAL_SURFACE ( 'NONE', #281, 2.049999999999999822 ) ;
#41 = EDGE_LOOP ( 'NONE', ( #92, #251, #371, #44 ) ) ;
#42 = CARTESIAN_POINT ( 'NONE',  ( -2.049999999999999822, 0.000000000000000000, 1.500000000000000000 ) ) ;
#43 = CARTESIAN_POINT ( 'NONE',  ( -3.499999999999999556, 4.286263797015736102E-16, -4.500000000000000000 ) ) ;
#44 = ORIENTED_EDGE ( 'NONE', *, *, #266, .T. ) ;
#45 = CARTESIAN_POINT ( 'NONE',  ( 0.000000000000000000, 0.000000000000000000, -4.500000000000000000 ) ) ;
#46 = EDGE_CURVE ( 'NONE', #366, #194, #359, .T. ) ;
#47 = VERTEX_POINT ( 'NONE', #97 ) ;
#48 = SURFACE_STYLE_FILL_AREA ( #73 ) ;
#49 = ORIENTED_EDGE ( 'NONE', *, *, #172, .F. ) ;
#50 = APPLICATION_PROTOCOL_DEFINITION ( 'draft international standard', 'automotive_design', 1998, #195 ) ;
#51 = EDGE_LOOP ( 'NONE', ( #140, #181, #218, #291 ) ) ;
#52 = CLOSED_SHELL ( 'NONE', ( #310, #157, #57, #361, #132, #375, #21, #320, #339, #293, #221, #169, #280 ) ) ;
#53 = ORIENTED_EDGE ( 'NONE', *, *, #338, .T. ) ;
#54 = CARTESIAN_POINT ( 'NONE',  ( -4.950000000000000178, 0.000000000000000000, 2.000000000000000000 ) ) ;
#55 = CARTESIAN_POINT ( 'NONE',  ( 3.499999999999999556, 0.000000000000000000, -4.500000000000000000 ) ) ;
#56 = VERTEX_POINT ( 'NONE', #88 ) ;
#57 = ADVANCED_FACE ( 'NONE', ( #173 ), #31, .F. ) ;
#58 = CARTESIAN_POINT ( 'NONE',  ( 0.000000000000000000, 0.000000000000000000, 2.000000000000000000 ) ) ;
#59 = DIRECTION ( 'NONE',  ( -1.000000000000000000, 0.000000000000000000, 0.000000000000000000 ) ) ;
#60 = ORIENTED_EDGE ( 'NONE', *, *, #46, .F. ) ;
#61 = PRODUCT_DEFINITION ( 'UNKNOWN', '', #9, #246 ) ;
#62 = DIRECTION ( 'NONE',  ( 0.000000000000000000, 0.000000000000000000, 1.000000000000000000 ) ) ;
#63 = TOROIDAL_SURFACE ( 'NONE', #22, 2.549999999999999822, 0.5000000000000000000 ) ;
#64 = CARTESIAN_POINT ( 'NONE',  ( 0.000000000000000000, 0.000000000000000000, 2.000000000000000000 ) ) ;
#65 = EDGE_CURVE ( 'NONE', #196, #366, #273, .T. ) ;
#66 = FACE_OUTER_BOUND ( 'NONE', #170, .T. ) ;
#67 = SHAPE_DEFINITION_REPRESENTATION ( #316, #299 ) ;
#68 = CARTESIAN_POINT ( 'NONE',  ( 2.049999999999999822, 2.510525938252073693E-16, 2.500000000000000444 ) ) ;
#69 = CIRCLE ( 'NONE', #38, 3.499999999999999556 ) ;
#70 = DIRECTION ( 'NONE',  ( 1.000000000000000000, 0.000000000000000000, 0.000000000000000000 ) ) ;
#71 = DIRECTION ( 'NONE',  ( 1.000000000000000000, 0.000000000000000000, 0.000000000000000000 ) ) ;
#72 =( LENGTH_UNIT ( ) NAMED_UNIT ( * ) SI_UNIT ( .MILLI., .METRE. ) );
#73 = FILL_AREA_STYLE ('',( #302 ) ) ;
#74 = CARTESIAN_POINT ( 'NONE',  ( 0.000000000000000000, 0.000000000000000000, 0.000000000000000000 ) ) ;
#75 = DIRECTION ( 'NONE',  ( 1.000000000000000000, 0.000000000000000000, 0.000000000000000000 ) ) ;
#76 = EDGE_CURVE ( 'NONE', #219, #56, #276, .T. ) ;
#77 = CARTESIAN_POINT ( 'NONE',  ( 0.000000000000000000, 0.000000000000000000, 1.500000000000000000 ) ) ;
#78 = ORIENTED_EDGE ( 'NONE', *, *, #338, .F. ) ;
#79 = DIRECTION ( 'NONE',  ( 1.000000000000000000, 0.000000000000000000, 0.000000000000000000 ) ) ;
#80 = ORIENTED_EDGE ( 'NONE', *, *, #122, .T. ) ;
#81 = EDGE_LOOP ( 'NONE', ( #106, #20 ) ) ;
#82 = CIRCLE ( 'NONE', #105, 2.049999999999999822 ) ;
#83 = AXIS2_PLACEMENT_3D ( 'NONE', #32, #204, #240 ) ;
#84 = VERTEX_POINT ( 'NONE', #377 ) ;
#85 = CIRCLE ( 'NONE', #128, 4.650000000000000355 ) ;
#86 = ORIENTED_EDGE ( 'NONE', *, *, #250, .T. ) ;
#87 = CARTESIAN_POINT ( 'NONE',  ( 3.499999999999999556, 0.000000000000000000, -4.500000000000000000 ) ) ;
#88 = CARTESIAN_POINT ( 'NONE',  ( -2.549999999999999822, 3.122849337825750419E-16, 2.000000000000000000 ) ) ;
#89 = AXIS2_PLACEMENT_3D ( 'NONE', #207, #5, #295 ) ;
#90 = DIRECTION ( 'NONE',  ( -0.000000000000000000, -0.000000000000000000, -1.000000000000000000 ) ) ;
#91 = DIRECTION ( 'NONE',  ( 1.000000000000000000, 0.000000000000000000, 0.000000000000000000 ) ) ;
#92 = ORIENTED_EDGE ( 'NONE', *, *, #211, .F. ) ;
#93 = DIRECTION ( 'NONE',  ( 0.000000000000000000, 0.000000000000000000, 1.000000000000000000 ) ) ;
#94 = CARTESIAN_POINT ( 'NONE',  ( -2.049999999999999822, 0.000000000000000000, 2.500000000000000444 ) ) ;
#95 = EDGE_CURVE ( 'NONE', #196, #84, #227, .T. ) ;
#96 = DIRECTION ( 'NONE',  ( -1.000000000000000000, 1.224646799147353207E-16, 0.000000000000000000 ) ) ;
#97 = CARTESIAN_POINT ( 'NONE',  ( -4.650000000000000355, 5.878304635907295197E-16, 0.000000000000000000 ) ) ;
#98 = DIRECTION ( 'NONE',  ( 0.000000000000000000, 0.000000000000000000, 1.000000000000000000 ) ) ;
#99 = CARTESIAN_POINT ( 'NONE',  ( -4.950000000000000178, 0.000000000000000000, 2.000000000000000000 ) ) ;
#100 = EDGE_CURVE ( 'NONE', #23, #47, #124, .T. ) ;
#101 = CARTESIAN_POINT ( 'NONE',  ( 0.000000000000000000, 0.000000000000000000, 0.000000000000000000 ) ) ;
#102 = VECTOR ( 'NONE', #90, 1000.000000000000000 ) ;
#103 = PRODUCT_CONTEXT ( 'NONE', #12, 'mechanical' ) ;
#104 = ORIENTED_EDGE ( 'NONE', *, *, #223, .T. ) ;
#105 = AXIS2_PLACEMENT_3D ( 'NONE', #268, #62, #265 ) ;
#106 = ORIENTED_EDGE ( 'NONE', *, *, #76, .T. ) ;
#107 = AXIS2_PLACEMENT_3D ( 'NONE', #123, #235, #319 ) ;
#108 = ORIENTED_EDGE ( 'NONE', *, *, #370, .F. ) ;
#109 = EDGE_LOOP ( 'NONE', ( #315, #26, #344, #206 ) ) ;
#110 = CARTESIAN_POINT ( 'NONE',  ( 0.000000000000000000, 0.000000000000000000, 1.500000000000000000 ) ) ;
#111 = EDGE_LOOP ( 'NONE', ( #108, #348, #183, #349 ) ) ;
#112 = DIRECTION ( 'NONE',  ( 1.000000000000000000, 0.000000000000000000, -0.000000000000000000 ) ) ;
#113 = EDGE_CURVE ( 'NONE', #357, #373, #201, .T. ) ;
#114 = DIRECTION ( 'NONE',  ( -1.000000000000000000, 0.000000000000000000, 0.000000000000000000 ) ) ;
#115 = FACE_BOUND ( 'NONE', #81, .T. ) ;
#116 = CIRCLE ( 'NONE', #270, 3.499999999999999556 ) ;
#117 = CIRCLE ( 'NONE', #256, 0.2999999999999999334 ) ;
#118 = DIRECTION ( 'NONE',  ( 0.000000000000000000, 0.000000000000000000, 1.000000000000000000 ) ) ;
#119 = FACE_OUTER_BOUND ( 'NONE', #255, .T. ) ;
#120 = EDGE_LOOP ( 'NONE', ( #166, #49 ) ) ;
#121 = FACE_OUTER_BOUND ( 'NONE', #198, .T. ) ;
#122 = EDGE_CURVE ( 'NONE', #277, #369, #325, .T. ) ;
#123 = CARTESIAN_POINT ( 'NONE',  ( 0.000000000000000000, 0.000000000000000000, -4.500000000000000000 ) ) ;
#124 = CIRCLE ( 'NONE', #288, 4.650000000000000355 ) ;
#125 = DIRECTION ( 'NONE',  ( -1.000000000000000000, 0.000000000000000000, 0.000000000000000000 ) ) ;
#126 = CARTESIAN_POINT ( 'NONE',  ( -2.549999999999999822, 3.122849337825750419E-16, 1.500000000000000000 ) ) ;
#127 = CARTESIAN_POINT ( 'NONE',  ( 4.950000000000000178, 6.062001655779398511E-16, 0.2999999999999999334 ) ) ;
#128 = AXIS2_PLACEMENT_3D ( 'NONE', #101, #341, #133 ) ;
#129 = CARTESIAN_POINT ( 'NONE',  ( -4.950000000000000178, 0.000000000000000000, 0.2999999999999999334 ) ) ;
#130 = DIRECTION ( 'NONE',  ( -1.000000000000000000, 0.000000000000000000, -0.000000000000000000 ) ) ;
#131 = EDGE_CURVE ( 'NONE', #279, #277, #329, .T. ) ;
#132 = ADVANCED_FACE ( 'NONE', ( #152 ), #203, .T. ) ;
#133 = DIRECTION ( 'NONE',  ( 1.000000000000000000, 0.000000000000000000, 0.000000000000000000 ) ) ;
#134 = ORIENTED_EDGE ( 'NONE', *, *, #113, .F. ) ;
#135 = CARTESIAN_POINT ( 'NONE',  ( 2.049999999999999822, 2.510525938252073693E-16, -4.500000000000000000 ) ) ;
#136 = ORIENTED_EDGE ( 'NONE', *, *, #223, .F. ) ;
#137 = AXIS2_PLACEMENT_3D ( 'NONE', #45, #19, #71 ) ;
#138 = ORIENTED_EDGE ( 'NONE', *, *, #95, .F. ) ;
#139 = ORIENTED_EDGE ( 'NONE', *, *, #143, .F. ) ;
#140 = ORIENTED_EDGE ( 'NONE', *, *, #6, .F. ) ;
#141 = AXIS2_PLACEMENT_3D ( 'NONE', #337, #254, #145 ) ;
#142 = DIRECTION ( 'NONE',  ( 1.000000000000000000, 0.000000000000000000, 0.000000000000000000 ) ) ;
#143 = EDGE_CURVE ( 'NONE', #47, #23, #85, .T. ) ;
#144 = PLANE ( 'NONE',  #11 ) ;
#145 = DIRECTION ( 'NONE',  ( -1.000000000000000000, 0.000000000000000000, 0.000000000000000000 ) ) ;
#146 = DIRECTION ( 'NONE',  ( 0.000000000000000000, 0.000000000000000000, 1.000000000000000000 ) ) ;
#147 = AXIS2_PLACEMENT_3D ( 'NONE', #360, #98, #36 ) ;
#148 = LINE ( 'NONE', #99, #156 ) ;
#149 = CARTESIAN_POINT ( 'NONE',  ( 2.549999999999999822, 0.000000000000000000, 1.500000000000000000 ) ) ;
#150 = DIRECTION ( 'NONE',  ( 0.000000000000000000, 0.000000000000000000, 1.000000000000000000 ) ) ;
#151 = CIRCLE ( 'NONE', #199, 0.2999999999999999889 ) ;
#152 = FACE_OUTER_BOUND ( 'NONE', #327, .T. ) ;
#153 = CARTESIAN_POINT ( 'NONE',  ( 2.549999999999999822, 0.000000000000000000, 2.000000000000000000 ) ) ;
#154 = DIRECTION ( 'NONE',  ( 1.000000000000000000, 0.000000000000000000, 0.000000000000000000 ) ) ;
#155 = TOROIDAL_SURFACE ( 'NONE', #174, 2.549999999999999822, 0.5000000000000000000 ) ;
#156 = VECTOR ( 'NONE', #262, 1000.000000000000000 ) ;
#157 = ADVANCED_FACE ( 'NONE', ( #312 ), #155, .T. ) ;
#158 = CARTESIAN_POINT ( 'NONE',  ( -2.049999999999999822, 0.000000000000000000, -4.500000000000000000 ) ) ;
#159 = MANIFOLD_SOLID_BREP ( 'Скругление2', #52 ) ;
#160 = APPLICATION_PROTOCOL_DEFINITION ( 'draft international standard', 'automotive_design', 1998, #12 ) ;
#161 = EDGE_CURVE ( 'NONE', #340, #373, #307, .T. ) ;
#162 = MECHANICAL_DESIGN_GEOMETRIC_PRESENTATION_REPRESENTATION (  '', ( #188 ), #230 ) ;
#163 = DIRECTION ( 'NONE',  ( -0.000000000000000000, -0.000000000000000000, -1.000000000000000000 ) ) ;
#164 = ORIENTED_EDGE ( 'NONE', *, *, #24, .F. ) ;
#165 = DIRECTION ( 'NONE',  ( 0.000000000000000000, 0.000000000000000000, 1.000000000000000000 ) ) ;
#166 = ORIENTED_EDGE ( 'NONE', *, *, #237, .F. ) ;
#167 = SURFACE_STYLE_USAGE ( .BOTH. , #365 ) ;
#168 = ORIENTED_EDGE ( 'NONE', *, *, #317, .F. ) ;
#169 = ADVANCED_FACE ( 'NONE', ( #347 ), #63, .T. ) ;
#170 = EDGE_LOOP ( 'NONE', ( #313, #104 ) ) ;
#171 = ORIENTED_EDGE ( 'NONE', *, *, #231, .T. ) ;
#172 = EDGE_CURVE ( 'NONE', #194, #84, #69, .T. ) ;
#173 = FACE_OUTER_BOUND ( 'NONE', #261, .T. ) ;
#174 = AXIS2_PLACEMENT_3D ( 'NONE', #77, #165, #79 ) ;
#175 = AXIS2_PLACEMENT_3D ( 'NONE', #214, #274, #70 ) ;
#176 = DIRECTION ( 'NONE',  ( 1.000000000000000000, 0.000000000000000000, 0.000000000000000000 ) ) ;
#177 = AXIS2_PLACEMENT_3D ( 'NONE', #149, #296, #354 ) ;
#178 = DIRECTION ( 'NONE',  ( -1.000000000000000000, 1.224646799147353454E-16, 0.000000000000000000 ) ) ;
#179 = CARTESIAN_POINT ( 'NONE',  ( 2.049999999999999822, 2.510525938252073693E-16, 1.500000000000000000 ) ) ;
#180 = VERTEX_POINT ( 'NONE', #54 ) ;
#181 = ORIENTED_EDGE ( 'NONE', *, *, #76, .F. ) ;
#182 = DIRECTION ( 'NONE',  ( 1.000000000000000000, 0.000000000000000000, 0.000000000000000000 ) ) ;
#183 = ORIENTED_EDGE ( 'NONE', *, *, #241, .F. ) ;
#184 = PLANE ( 'NONE',  #363 ) ;
#185 = FACE_BOUND ( 'NONE', #120, .T. ) ;
#186 = DIRECTION ( 'NONE',  ( 0.000000000000000000, 0.000000000000000000, 1.000000000000000000 ) ) ;
#187 = CARTESIAN_POINT ( 'NONE',  ( 0.000000000000000000, 0.000000000000000000, -4.500000000000000000 ) ) ;
#188 = STYLED_ITEM ( 'NONE', ( #303 ), #159 ) ;
#189 = DIRECTION ( 'NONE',  ( -1.000000000000000000, 0.000000000000000000, 0.000000000000000000 ) ) ;
#190 =( NAMED_UNIT ( * ) PLANE_ANGLE_UNIT ( ) SI_UNIT ( $, .RADIAN. ) );
#191 = PRESENTATION_LAYER_ASSIGNMENT (  '', '', ( #188 ) ) ;
#192 = CIRCLE ( 'NONE', #175, 2.549999999999999822 ) ;
#193 =( GEOMETRIC_REPRESENTATION_CONTEXT ( 3 ) GLOBAL_UNCERTAINTY_ASSIGNED_CONTEXT ( ( #278 ) ) GLOBAL_UNIT_ASSIGNED_CONTEXT ( ( #72, #190, #242 ) ) REPRESENTATION_CONTEXT ( 'NONE', 'WORKASPACE' ) );
#194 = VERTEX_POINT ( 'NONE', #228 ) ;
#195 = APPLICATION_CONTEXT ( 'automotive_design' ) ;
#196 = VERTEX_POINT ( 'NONE', #87 ) ;
#197 = ORIENTED_EDGE ( 'NONE', *, *, #237, .T. ) ;
#198 = EDGE_LOOP ( 'NONE', ( #28, #381 ) ) ;
#199 = AXIS2_PLACEMENT_3D ( 'NONE', #263, #383, #352 ) ;
#200 = EDGE_LOOP ( 'NONE', ( #249, #208, #305, #86 ) ) ;
#201 = LINE ( 'NONE', #94, #343 ) ;
#202 = AXIS2_PLACEMENT_3D ( 'NONE', #297, #260, #59 ) ;
#203 = CYLINDRICAL_SURFACE ( 'NONE', #346, 4.950000000000000178 ) ;
#204 = DIRECTION ( 'NONE',  ( 0.000000000000000000, 0.000000000000000000, 1.000000000000000000 ) ) ;
#205 = AXIS2_PLACEMENT_3D ( 'NONE', #3, #146, #286 ) ;
#206 = ORIENTED_EDGE ( 'NONE', *, *, #250, .F. ) ;
#207 = CARTESIAN_POINT ( 'NONE',  ( 0.000000000000000000, 0.000000000000000000, 0.2999999999999999334 ) ) ;
#208 = ORIENTED_EDGE ( 'NONE', *, *, #306, .F. ) ;
#209 = ORIENTED_EDGE ( 'NONE', *, *, #334, .T. ) ;
#210 = CARTESIAN_POINT ( 'NONE',  ( 0.000000000000000000, 0.000000000000000000, 2.000000000000000000 ) ) ;
#211 = EDGE_CURVE ( 'NONE', #294, #340, #333, .T. ) ;
#212 = DIRECTION ( 'NONE',  ( 0.000000000000000000, 0.000000000000000000, -1.000000000000000000 ) ) ;
#213 = DIRECTION ( 'NONE',  ( -0.000000000000000000, -0.000000000000000000, -1.000000000000000000 ) ) ;
#214 = CARTESIAN_POINT ( 'NONE',  ( 0.000000000000000000, 0.000000000000000000, 2.000000000000000000 ) ) ;
#215 = AXIS2_PLACEMENT_3D ( 'NONE', #326, #382, #355 ) ;
#216 = FACE_OUTER_BOUND ( 'NONE', #285, .T. ) ;
#217 = DIRECTION ( 'NONE',  ( -1.000000000000000000, 0.000000000000000000, 0.000000000000000000 ) ) ;
#218 = ORIENTED_EDGE ( 'NONE', *, *, #4, .T. ) ;
#219 = VERTEX_POINT ( 'NONE', #153 ) ;
#220 = AXIS2_PLACEMENT_3D ( 'NONE', #236, #267, #233 ) ;
#221 = ADVANCED_FACE ( 'NONE', ( #271 ), #40, .F. ) ;
#222 = ORIENTED_EDGE ( 'NONE', *, *, #172, .T. ) ;
#223 = EDGE_CURVE ( 'NONE', #366, #196, #116, .T. ) ;
#224 = ORIENTED_EDGE ( 'NONE', *, *, #65, .F. ) ;
#225 = ORIENTED_EDGE ( 'NONE', *, *, #46, .T. ) ;
#226 = VECTOR ( 'NONE', #323, 1000.000000000000000 ) ;
#227 = LINE ( 'NONE', #55, #258 ) ;
#228 = CARTESIAN_POINT ( 'NONE',  ( -3.499999999999999556, 4.286263797015736102E-16, 0.000000000000000000 ) ) ;
#229 = DIRECTION ( 'NONE',  ( 0.000000000000000000, 0.000000000000000000, 1.000000000000000000 ) ) ;
#230 =( GEOMETRIC_REPRESENTATION_CONTEXT ( 3 ) GLOBAL_UNCERTAINTY_ASSIGNED_CONTEXT ( ( #17 ) ) GLOBAL_UNIT_ASSIGNED_CONTEXT ( ( #252, #284, #322 ) ) REPRESENTATION_CONTEXT ( 'NONE', 'WORKASPACE' ) );
#231 = EDGE_CURVE ( 'NONE', #357, #294, #82, .T. ) ;
#232 = CARTESIAN_POINT ( 'NONE',  ( 0.000000000000000000, 0.000000000000000000, -4.500000000000000000 ) ) ;
#233 = DIRECTION ( 'NONE',  ( -1.000000000000000000, 0.000000000000000000, 0.000000000000000000 ) ) ;
#234 = PLANE ( 'NONE',  #330 ) ;
#235 = DIRECTION ( 'NONE',  ( 0.000000000000000000, 0.000000000000000000, -1.000000000000000000 ) ) ;
#236 = CARTESIAN_POINT ( 'NONE',  ( 0.000000000000000000, 0.000000000000000000, 2.500000000000000444 ) ) ;
#237 = EDGE_CURVE ( 'NONE', #84, #194, #367, .T. ) ;
#238 = CARTESIAN_POINT ( 'NONE',  ( 0.000000000000000000, 0.000000000000000000, 2.500000000000000444 ) ) ;
#239 = CARTESIAN_POINT ( 'NONE',  ( 0.000000000000000000, 0.000000000000000000, 2.000000000000000000 ) ) ;
#240 = DIRECTION ( 'NONE',  ( 1.000000000000000000, 0.000000000000000000, 0.000000000000000000 ) ) ;
#241 = EDGE_CURVE ( 'NONE', #294, #357, #335, .T. ) ;
#242 =( NAMED_UNIT ( * ) SI_UNIT ( $, .STERADIAN. ) SOLID_ANGLE_UNIT ( ) );
#243 = CYLINDRICAL_SURFACE ( 'NONE', #8, 4.950000000000000178 ) ;
#244 = CIRCLE ( 'NONE', #292, 4.950000000000000178 ) ;
#245 = FACE_OUTER_BOUND ( 'NONE', #18, .T. ) ;
#246 = PRODUCT_DEFINITION_CONTEXT ( 'detailed design', #195, 'design' ) ;
#247 = ORIENTED_EDGE ( 'NONE', *, *, #161, .T. ) ;
#248 = CIRCLE ( 'NONE', #89, 4.950000000000000178 ) ;
#249 = ORIENTED_EDGE ( 'NONE', *, *, #131, .F. ) ;
#250 = EDGE_CURVE ( 'NONE', #369, #277, #248, .T. ) ;
#251 = ORIENTED_EDGE ( 'NONE', *, *, #241, .T. ) ;
#252 =( LENGTH_UNIT ( ) NAMED_UNIT ( * ) SI_UNIT ( .MILLI., .METRE. ) );
#253 = EDGE_LOOP ( 'NONE', ( #311, #1 ) ) ;
#254 = DIRECTION ( 'NONE',  ( 0.000000000000000000, 0.000000000000000000, -1.000000000000000000 ) ) ;
#255 = EDGE_LOOP ( 'NONE', ( #283, #53 ) ) ;
#256 = AXIS2_PLACEMENT_3D ( 'NONE', #358, #298, #96 ) ;
#257 = DIRECTION ( 'NONE',  ( -0.000000000000000000, -0.000000000000000000, -1.000000000000000000 ) ) ;
#258 = VECTOR ( 'NONE', #356, 1000.000000000000000 ) ;
#259 = CARTESIAN_POINT ( 'NONE',  ( 0.000000000000000000, 0.000000000000000000, 2.000000000000000000 ) ) ;
#260 = DIRECTION ( 'NONE',  ( 0.000000000000000000, 0.000000000000000000, -1.000000000000000000 ) ) ;
#261 = EDGE_LOOP ( 'NONE', ( #171, #25, #247, #134 ) ) ;
#262 = DIRECTION ( 'NONE',  ( -0.000000000000000000, -0.000000000000000000, -1.000000000000000000 ) ) ;
#263 = CARTESIAN_POINT ( 'NONE',  ( 4.650000000000000355, 0.000000000000000000, 0.2999999999999999334 ) ) ;
#264 = AXIS2_PLACEMENT_3D ( 'NONE', #126, #378, #178 ) ;
#265 = DIRECTION ( 'NONE',  ( 1.000000000000000000, 0.000000000000000000, 0.000000000000000000 ) ) ;
#266 = EDGE_CURVE ( 'NONE', #373, #340, #351, .T. ) ;
#267 = DIRECTION ( 'NONE',  ( -0.000000000000000000, -0.000000000000000000, -1.000000000000000000 ) ) ;
#268 = CARTESIAN_POINT ( 'NONE',  ( 0.000000000000000000, 0.000000000000000000, 1.500000000000000000 ) ) ;
#269 = CARTESIAN_POINT ( 'NONE',  ( 0.000000000000000000, 0.000000000000000000, -4.500000000000000000 ) ) ;
#270 = AXIS2_PLACEMENT_3D ( 'NONE', #187, #328, #125 ) ;
#271 = FACE_OUTER_BOUND ( 'NONE', #41, .T. ) ;
#272 = DIRECTION ( 'NONE',  ( 1.000000000000000000, 0.000000000000000000, 0.000000000000000000 ) ) ;
#273 = CIRCLE ( 'NONE', #107, 3.499999999999999556 ) ;
#274 = DIRECTION ( 'NONE',  ( -0.000000000000000000, -0.000000000000000000, -1.000000000000000000 ) ) ;
#275 = AXIS2_PLACEMENT_3D ( 'NONE', #379, #118, #182 ) ;
#276 = CIRCLE ( 'NONE', #324, 2.549999999999999822 ) ;
#277 = VERTEX_POINT ( 'NONE', #127 ) ;
#278 = UNCERTAINTY_MEASURE_WITH_UNIT (LENGTH_MEASURE( 1.000000000000000082E-05 ), #72, 'distance_accuracy_value', 'NONE');
#279 = VERTEX_POINT ( 'NONE', #353 ) ;
#280 = ADVANCED_FACE ( 'NONE', ( #362 ), #314, .T. ) ;
#281 = AXIS2_PLACEMENT_3D ( 'NONE', #238, #10, #300 ) ;
#282 = ORIENTED_EDGE ( 'NONE', *, *, #95, .T. ) ;
#283 = ORIENTED_EDGE ( 'NONE', *, *, #306, .T. ) ;
#284 =( NAMED_UNIT ( * ) PLANE_ANGLE_UNIT ( ) SI_UNIT ( $, .RADIAN. ) );
#285 = EDGE_LOOP ( 'NONE', ( #60, #224, #282, #197 ) ) ;
#286 = DIRECTION ( 'NONE',  ( 1.000000000000000000, 0.000000000000000000, 0.000000000000000000 ) ) ;
#287 = CARTESIAN_POINT ( 'NONE',  ( 0.000000000000000000, 0.000000000000000000, 0.000000000000000000 ) ) ;
#288 = AXIS2_PLACEMENT_3D ( 'NONE', #287, #29, #35 ) ;
#289 = CARTESIAN_POINT ( 'NONE',  ( -3.499999999999999556, 4.286263797015736102E-16, -4.500000000000000000 ) ) ;
#290 = FACE_OUTER_BOUND ( 'NONE', #301, .T. ) ;
#291 = ORIENTED_EDGE ( 'NONE', *, *, #231, .F. ) ;
#292 = AXIS2_PLACEMENT_3D ( 'NONE', #332, #93, #91 ) ;
#293 = ADVANCED_FACE ( 'NONE', ( #331, #66 ), #184, .T. ) ;
#294 = VERTEX_POINT ( 'NONE', #179 ) ;
#295 = DIRECTION ( 'NONE',  ( 1.000000000000000000, 0.000000000000000000, 0.000000000000000000 ) ) ;
#296 = DIRECTION ( 'NONE',  ( 0.000000000000000000, -1.000000000000000000, 0.000000000000000000 ) ) ;
#297 = CARTESIAN_POINT ( 'NONE',  ( 0.000000000000000000, 0.000000000000000000, 0.000000000000000000 ) ) ;
#298 = DIRECTION ( 'NONE',  ( 1.224646799147353207E-16, 1.000000000000000000, -0.000000000000000000 ) ) ;
#299 = ADVANCED_BREP_SHAPE_REPRESENTATION ( 'spacer GelSlim to WSG', ( #159, #368 ), #193 ) ;
#300 = DIRECTION ( 'NONE',  ( -1.000000000000000000, 0.000000000000000000, 0.000000000000000000 ) ) ;
#301 = EDGE_LOOP ( 'NONE', ( #139, #209, #345, #164 ) ) ;
#302 = FILL_AREA_STYLE_COLOUR ( '', #380 ) ;
#303 = PRESENTATION_STYLE_ASSIGNMENT (( #167 ) ) ;
#304 = DIRECTION ( 'NONE',  ( -0.000000000000000000, -0.000000000000000000, 1.000000000000000000 ) ) ;
#305 = ORIENTED_EDGE ( 'NONE', *, *, #317, .T. ) ;
#306 = EDGE_CURVE ( 'NONE', #180, #279, #244, .T. ) ;
#307 = CIRCLE ( 'NONE', #141, 2.049999999999999822 ) ;
#308 = CIRCLE ( 'NONE', #336, 4.950000000000000178 ) ;
#309 = CYLINDRICAL_SURFACE ( 'NONE', #137, 3.499999999999999556 ) ;
#310 = ADVANCED_FACE ( 'NONE', ( #290 ), #14, .T. ) ;
#311 = ORIENTED_EDGE ( 'NONE', *, *, #266, .F. ) ;
#312 = FACE_OUTER_BOUND ( 'NONE', #111, .T. ) ;
#313 = ORIENTED_EDGE ( 'NONE', *, *, #65, .T. ) ;
#314 = TOROIDAL_SURFACE ( 'NONE', #147, 4.650000000000000355, 0.2999999999999999889 ) ;
#315 = ORIENTED_EDGE ( 'NONE', *, *, #334, .F. ) ;
#316 = PRODUCT_DEFINITION_SHAPE ( 'NONE', 'NONE',  #61 ) ;
#317 = EDGE_CURVE ( 'NONE', #180, #369, #148, .T. ) ;
#318 = DIRECTION ( 'NONE',  ( 0.000000000000000000, 0.000000000000000000, 1.000000000000000000 ) ) ;
#319 = DIRECTION ( 'NONE',  ( -1.000000000000000000, 0.000000000000000000, 0.000000000000000000 ) ) ;
#320 = ADVANCED_FACE ( 'NONE', ( #121, #185 ), #234, .F. ) ;
#321 = CARTESIAN_POINT ( 'NONE',  ( 4.950000000000000178, 6.062001655779398511E-16, 2.000000000000000000 ) ) ;
#322 =( NAMED_UNIT ( * ) SI_UNIT ( $, .STERADIAN. ) SOLID_ANGLE_UNIT ( ) );
#323 = DIRECTION ( 'NONE',  ( -0.000000000000000000, -0.000000000000000000, 1.000000000000000000 ) ) ;
#324 = AXIS2_PLACEMENT_3D ( 'NONE', #259, #257, #176 ) ;
#325 = CIRCLE ( 'NONE', #205, 4.950000000000000178 ) ;
#326 = CARTESIAN_POINT ( 'NONE',  ( 0.000000000000000000, 0.000000000000000000, -4.500000000000000000 ) ) ;
#327 = EDGE_LOOP ( 'NONE', ( #78, #376, #80, #168 ) ) ;
#328 = DIRECTION ( 'NONE',  ( 0.000000000000000000, 0.000000000000000000, -1.000000000000000000 ) ) ;
#329 = LINE ( 'NONE', #321, #102 ) ;
#330 = AXIS2_PLACEMENT_3D ( 'NONE', #34, #150, #2 ) ;
#331 = FACE_BOUND ( 'NONE', #253, .T. ) ;
#332 = CARTESIAN_POINT ( 'NONE',  ( 0.000000000000000000, 0.000000000000000000, 2.000000000000000000 ) ) ;
#333 = LINE ( 'NONE', #68, #7 ) ;
#334 = EDGE_CURVE ( 'NONE', #47, #369, #117, .T. ) ;
#335 = CIRCLE ( 'NONE', #275, 2.049999999999999822 ) ;
#336 = AXIS2_PLACEMENT_3D ( 'NONE', #210, #37, #154 ) ;
#337 = CARTESIAN_POINT ( 'NONE',  ( 0.000000000000000000, 0.000000000000000000, -4.500000000000000000 ) ) ;
#338 = EDGE_CURVE ( 'NONE', #279, #180, #308, .T. ) ;
#339 = ADVANCED_FACE ( 'NONE', ( #216 ), #309, .T. ) ;
#340 = VERTEX_POINT ( 'NONE', #135 ) ;
#341 = DIRECTION ( 'NONE',  ( -0.000000000000000000, -0.000000000000000000, -1.000000000000000000 ) ) ;
#342 = CIRCLE ( 'NONE', #177, 0.5000000000000000000 ) ;
#343 = VECTOR ( 'NONE', #350, 1000.000000000000000 ) ;
#344 = ORIENTED_EDGE ( 'NONE', *, *, #24, .T. ) ;
#345 = ORIENTED_EDGE ( 'NONE', *, *, #122, .F. ) ;
#346 = AXIS2_PLACEMENT_3D ( 'NONE', #58, #364, #189 ) ;
#347 = FACE_OUTER_BOUND ( 'NONE', #51, .T. ) ;
#348 = ORIENTED_EDGE ( 'NONE', *, *, #6, .T. ) ;
#349 = ORIENTED_EDGE ( 'NONE', *, *, #4, .F. ) ;
#350 = DIRECTION ( 'NONE',  ( -0.000000000000000000, -0.000000000000000000, -1.000000000000000000 ) ) ;
#351 = CIRCLE ( 'NONE', #215, 2.049999999999999822 ) ;
#352 = DIRECTION ( 'NONE',  ( 0.000000000000000000, 0.000000000000000000, -1.000000000000000000 ) ) ;
#353 = CARTESIAN_POINT ( 'NONE',  ( 4.950000000000000178, 6.062001655779398511E-16, 2.000000000000000000 ) ) ;
#354 = DIRECTION ( 'NONE',  ( 0.000000000000000000, 0.000000000000000000, -1.000000000000000000 ) ) ;
#355 = DIRECTION ( 'NONE',  ( -1.000000000000000000, 0.000000000000000000, 0.000000000000000000 ) ) ;
#356 = DIRECTION ( 'NONE',  ( -0.000000000000000000, -0.000000000000000000, 1.000000000000000000 ) ) ;
#357 = VERTEX_POINT ( 'NONE', #42 ) ;
#358 = CARTESIAN_POINT ( 'NONE',  ( -4.650000000000000355, 5.694607616035192869E-16, 0.2999999999999999334 ) ) ;
#359 = LINE ( 'NONE', #289, #226 ) ;
#360 = CARTESIAN_POINT ( 'NONE',  ( 0.000000000000000000, 0.000000000000000000, 0.2999999999999999334 ) ) ;
#361 = ADVANCED_FACE ( 'NONE', ( #245 ), #13, .T. ) ;
#362 = FACE_OUTER_BOUND ( 'NONE', #109, .T. ) ;
#363 = AXIS2_PLACEMENT_3D ( 'NONE', #232, #212, #130 ) ;
#364 = DIRECTION ( 'NONE',  ( -0.000000000000000000, -0.000000000000000000, -1.000000000000000000 ) ) ;
#365 = SURFACE_SIDE_STYLE ('',( #48 ) ) ;
#366 = VERTEX_POINT ( 'NONE', #43 ) ;
#367 = CIRCLE ( 'NONE', #202, 3.499999999999999556 ) ;
#368 = AXIS2_PLACEMENT_3D ( 'NONE', #74, #186, #75 ) ;
#369 = VERTEX_POINT ( 'NONE', #129 ) ;
#370 = EDGE_CURVE ( 'NONE', #56, #219, #192, .T. ) ;
#371 = ORIENTED_EDGE ( 'NONE', *, *, #113, .T. ) ;
#372 = PRODUCT ( 'spacer GelSlim to WSG', 'spacer GelSlim to WSG', '', ( #103 ) ) ;
#373 = VERTEX_POINT ( 'NONE', #158 ) ;
#374 = DIRECTION ( 'NONE',  ( 0.000000000000000000, 0.000000000000000000, -1.000000000000000000 ) ) ;
#375 = ADVANCED_FACE ( 'NONE', ( #15 ), #243, .T. ) ;
#376 = ORIENTED_EDGE ( 'NONE', *, *, #131, .T. ) ;
#377 = CARTESIAN_POINT ( 'NONE',  ( 3.499999999999999556, 0.000000000000000000, 0.000000000000000000 ) ) ;
#378 = DIRECTION ( 'NONE',  ( 1.224646799147353207E-16, 1.000000000000000000, -0.000000000000000000 ) ) ;
#379 = CARTESIAN_POINT ( 'NONE',  ( 0.000000000000000000, 0.000000000000000000, 1.500000000000000000 ) ) ;
#380 = COLOUR_RGB ( '',0.7921568627450980005, 0.8196078431372548767, 0.9333333333333333481 ) ;
#381 = ORIENTED_EDGE ( 'NONE', *, *, #143, .T. ) ;
#382 = DIRECTION ( 'NONE',  ( 0.000000000000000000, 0.000000000000000000, -1.000000000000000000 ) ) ;
#383 = DIRECTION ( 'NONE',  ( 0.000000000000000000, -1.000000000000000000, 0.000000000000000000 ) ) ;
ENDSEC;
END-ISO-10303-21;
